<svg width="15" height="16" viewBox="0 0 15 16" fill="none" xmlns="http://www.w3.org/2000/svg">
<path d="M4.50416 16C4.09128 16 3.73795 15.8435 3.44418 15.5304C3.15041 15.2173 3.00327 14.8405 3.00277 14.4C3.00277 13.96 3.14991 13.5835 3.44418 13.2704C3.73845 12.9573 4.09178 12.8005 4.50416 12.8C4.91704 12.8 5.27062 12.9568 5.56489 13.2704C5.85916 13.584 6.00605 13.9605 6.00555 14.4C6.00555 14.84 5.85866 15.2168 5.56489 15.5304C5.27112 15.844 4.91754 16.0005 4.50416 16ZM12.0111 16C11.5982 16 11.2449 15.8435 10.9511 15.5304C10.6573 15.2173 10.5102 14.8405 10.5097 14.4C10.5097 13.96 10.6568 13.5835 10.9511 13.2704C11.2454 12.9573 11.5987 12.8005 12.0111 12.8C12.424 12.8 12.7776 12.9568 13.0718 13.2704C13.3661 13.584 13.513 13.9605 13.5125 14.4C13.5125 14.84 13.3656 15.2168 13.0718 15.5304C12.7781 15.844 12.4245 16.0005 12.0111 16ZM3.86607 3.2L5.66774 7.2H10.9226L12.987 3.2H3.86607ZM3.15291 1.6H14.2256C14.5134 1.6 14.7324 1.7368 14.8825 2.0104C15.0326 2.284 15.0389 2.56053 14.9013 2.84L12.2363 7.96C12.0987 8.22667 11.9143 8.43333 11.683 8.58C11.4518 8.72667 11.1983 8.8 10.9226 8.8H5.32992L4.50416 10.4H13.5125V12H4.50416C3.94114 12 3.51575 11.7368 3.22798 11.2104C2.94022 10.684 2.9277 10.1605 3.19045 9.64L4.20388 7.68L1.50139 1.6H0V0H2.43975L3.15291 1.6Z" fill="#E40044"/>
</svg>
