<svg width="43" height="43" viewBox="0 0 43 43" fill="none" xmlns="http://www.w3.org/2000/svg">
<path d="M28.667 7.16671H32.2503C33.2007 7.16671 34.1121 7.54424 34.7841 8.21624C35.4561 8.88825 35.8337 9.79968 35.8337 10.75V35.8334C35.8337 36.7837 35.4561 37.6952 34.7841 38.3672C34.1121 39.0392 33.2007 39.4167 32.2503 39.4167H10.7503C9.79997 39.4167 8.88853 39.0392 8.21653 38.3672C7.54452 37.6952 7.16699 36.7837 7.16699 35.8334V10.75C7.16699 9.79968 7.54452 8.88825 8.21653 8.21624C8.88853 7.54424 9.79997 7.16671 10.7503 7.16671H14.3337M21.5003 19.7084H28.667M21.5003 28.6667H28.667M14.3337 19.7084H14.3516M14.3337 28.6667H14.3516M16.1253 3.58337H26.8753C27.8648 3.58337 28.667 4.38553 28.667 5.37504V8.95837C28.667 9.94788 27.8648 10.75 26.8753 10.75H16.1253C15.1358 10.75 14.3337 9.94788 14.3337 8.95837V5.37504C14.3337 4.38553 15.1358 3.58337 16.1253 3.58337Z" stroke="#E40044" stroke-width="3" stroke-linecap="round" stroke-linejoin="round"/>
</svg>
