<svg width="30" height="30" viewBox="0 0 30 30" fill="none" xmlns="http://www.w3.org/2000/svg">
<path d="M29.9969 14.7281C29.9757 14.5443 29.8833 14.4131 29.6909 14.3389C29.119 14.1189 28.5883 13.8123 28.0522 13.519C27.8682 13.4182 27.6789 13.3891 27.4795 13.4231C27.3185 13.4505 27.341 13.6157 27.2853 13.7195C27.1372 13.9943 26.8298 14.0252 26.6405 13.7752C26.6011 13.7231 26.5724 13.6617 26.5445 13.602C26.1358 12.7286 24.1571 7.89349 23.9753 7.64301C23.8855 7.51932 23.7785 7.35145 23.8824 7.1712C24.1084 6.77936 24.2999 6.69851 24.7626 6.78775C24.8386 6.80233 24.924 6.84341 24.9917 6.76831C25.1102 6.63667 25.2124 6.48116 25.2504 6.31727C25.3389 5.93602 25.4534 5.56626 25.6325 5.21948C25.7511 4.98931 25.7895 4.73927 25.8369 4.49233C25.8837 4.24715 25.7099 4.0298 25.5025 4.05851C25.211 4.09871 24.9169 4.19281 24.6631 4.30281C24.3123 4.45478 23.951 4.57449 23.5967 4.711C23.1213 4.89389 23.1155 4.87843 23.0819 5.38205C23.0487 5.88301 22.6653 6.10831 22.2027 5.90377C22.0686 5.84458 21.9457 5.70189 21.8329 5.69261C21.4667 5.66257 16.534 3.42722 16.143 3.2112C15.8361 3.04156 15.8427 2.91787 16.1213 2.69654C16.3659 2.50216 16.4009 2.382 16.2726 2.10766C15.9944 1.51481 15.7113 0.92417 15.4305 0.332201C15.3894 0.245173 15.342 0.162121 15.2704 0.0962972C15.1174 -0.0441848 14.9135 -0.0304901 14.7883 0.134289C14.7397 0.197904 14.7038 0.272563 14.6676 0.344571C14.3659 0.942724 14.0727 1.54529 13.7618 2.13815C13.6264 2.39658 13.6189 2.44783 13.8405 2.63646C13.8909 2.67931 13.952 2.71156 13.9944 2.7606C14.12 2.90506 14.1063 3.0769 13.959 3.15686C13.6835 3.30618 7.59598 5.9612 7.41023 6.02349C7.28816 5.78361 6.96972 5.67891 6.98122 5.33875C6.99404 4.96723 6.91311 4.89124 6.57078 4.75385C6.11347 4.57052 5.63183 4.45433 5.18513 4.23787C4.9976 4.14686 4.77779 4.11373 4.56815 4.07883C4.33286 4.03951 4.06882 4.31032 4.1555 4.49012C4.42972 5.06 4.61415 5.6608 4.78619 6.26602C4.90605 6.68747 5.08871 6.80321 5.52214 6.72944C5.619 6.71309 5.71188 6.71707 5.79901 6.77185C6.1577 6.99626 6.24792 7.26088 6.08428 7.65759C5.83616 8.25751 3.34658 13.8569 3.26077 13.8861C3.00381 13.9731 2.90607 13.9364 2.73712 13.6714C2.56198 13.3975 2.42398 13.3264 2.17454 13.4474C1.53191 13.7593 0.891934 14.0769 0.264783 14.4188C-0.0855008 14.6097 -0.0815203 14.8182 0.23692 15.0501C0.319626 15.1107 0.417369 15.15 0.502287 15.2078C0.896799 15.4769 1.35367 15.6209 1.77074 15.8444C1.94588 15.9381 2.11837 16.0384 2.29926 16.1201C2.44389 16.1855 2.57524 16.1864 2.66282 16.0052C2.71058 15.9058 2.8123 15.8329 2.88351 15.7433C2.93835 15.6748 3.079 15.7366 3.09669 15.5966C3.0989 15.5802 3.23601 15.62 3.28775 15.6986C3.43857 15.927 5.91179 21.473 6.1316 21.9545C6.19396 22.0915 6.24217 22.2408 6.1431 22.3755C5.96707 22.6154 5.78839 22.8663 5.46067 22.7563C5.37177 22.7506 5.31958 22.7519 5.26916 22.7431C5.04846 22.706 4.94541 22.7872 4.88482 23.0156C4.78929 23.3761 4.64511 23.7229 4.4996 24.0693C4.35099 24.424 4.24396 24.803 4.17806 25.1869C4.1471 25.3672 4.26607 25.4644 4.41645 25.4917C4.67032 25.5381 4.93303 25.4674 5.13913 25.3521C5.59379 25.0972 6.0918 24.9744 6.57432 24.8061C6.86534 24.7045 7.00245 24.5393 6.92859 24.2385C6.89718 24.1108 6.88878 23.9964 6.97149 23.8819C7.21209 23.5489 7.47303 23.4835 7.86047 23.6244C8.08691 23.707 13.8626 26.2706 13.9568 26.3267C14.1081 26.4172 14.1444 26.5502 14.0581 26.704C14.0121 26.7861 13.9528 26.8599 13.8772 26.9231C13.6791 27.0879 13.6512 27.2354 13.7613 27.4682C13.8525 27.6613 13.9409 27.8552 14.0373 28.0456C14.2558 28.4777 14.4553 28.9177 14.6499 29.3612C14.7127 29.5048 14.8246 29.6227 14.9944 29.6373C15.1634 29.6514 15.2682 29.545 15.3376 29.4045C15.6552 28.7652 15.9723 28.126 16.285 27.4846C16.3863 27.2769 16.3372 27.0998 16.151 26.9593C16.0926 26.9151 16.0342 26.867 15.9909 26.8091C15.8781 26.6585 15.9086 26.4283 16.051 26.3421C16.2744 26.2065 21.8051 23.8236 22.0173 23.7335C22.5348 23.5135 22.5919 23.483 22.9824 23.8762C22.9877 23.8815 22.9917 23.8877 22.9979 23.8921C23.131 23.9818 23.1597 24.0896 23.1089 24.2495C23.0368 24.4761 23.1173 24.6391 23.3247 24.7434C23.491 24.8269 23.644 24.9254 23.8435 24.955C24.0642 24.9877 24.2867 25.0778 24.4839 25.1865C24.8037 25.3632 25.1429 25.4613 25.4985 25.4736C25.8205 25.4847 25.9886 25.4246 25.8461 25.0085C25.8201 24.932 25.79 24.8565 25.767 24.7792C25.5874 24.1819 25.3176 23.6151 25.1642 23.0086C25.1102 22.7943 24.8156 22.66 24.6038 22.7457C24.3831 22.835 24.1951 22.7784 23.9877 22.5301C23.8639 22.3821 23.8077 22.2271 23.9258 22.0203C24.0536 21.7968 26.6126 15.8082 26.7643 15.6779C26.8859 15.5732 27.0014 15.567 27.1168 15.6739C27.1805 15.7331 27.2362 15.8029 27.288 15.8731C27.4835 16.1391 27.6042 16.1762 27.9142 16.0357C28.1756 15.9173 28.4419 15.8157 28.6904 15.662C29.0226 15.4566 29.3875 15.3037 29.7373 15.1266C29.8996 15.0444 30.0195 14.922 29.9974 14.729L29.9969 14.7281ZM25.5136 14.9247C24.5618 17.0951 23.5989 19.2606 22.6719 21.4412C22.4826 21.886 22.2049 22.1308 21.771 22.3159C19.6507 23.2211 17.5419 24.1523 15.434 25.0862C15.1457 25.2139 14.9082 25.2064 14.6189 25.0787C12.3766 24.0856 10.1271 23.108 7.87727 22.1303C7.71673 22.0605 7.61544 21.9629 7.54601 21.803C6.55619 19.5288 5.56283 17.2563 4.56726 14.9847C4.51375 14.8628 4.49738 14.7537 4.55311 14.6265C5.5677 12.3072 6.58051 9.98703 7.58979 7.6651C7.65746 7.5096 7.76847 7.42964 7.91752 7.36382C10.1254 6.38309 12.331 5.39751 14.5371 4.41325C14.691 4.34433 14.8462 4.27807 15.0006 4.21092C15.0935 4.24582 15.1775 4.27233 15.2576 4.30767C16.6233 4.91642 17.9878 5.52739 19.3535 6.1357C20.208 6.51606 21.0611 6.89996 21.9209 7.26839C22.2323 7.40181 22.449 7.57984 22.591 7.91072C23.5516 10.1492 24.5352 12.3779 25.514 14.6088C25.5626 14.7197 25.5609 14.8164 25.5136 14.9251V14.9247Z" fill="#E40044"/>
<path d="M21.6816 19.0303C21.6746 18.9264 20.7352 10.9024 20.5932 9.72924C20.5628 9.47812 20.5888 9.21323 20.4627 8.97808L20.4653 8.98562C20.2973 8.78064 20.1262 8.71276 19.9586 8.83078C19.7893 8.94968 17.5098 11.492 17.4273 11.5568C17.2791 11.7076 17.1438 11.7081 17.0203 11.5253C17.004 11.5013 16.0002 10.7528 15.5288 10.3797C15.2351 10.1299 15.0155 10.176 14.8616 10.5199C14.8373 10.574 14.8206 10.6304 14.8051 10.6872C14.4391 12.0519 12.9238 17.6575 12.8334 17.9601C12.721 18.3372 12.6707 18.374 12.2782 18.3319C12.2279 18.3266 12.1786 18.3093 12.1287 18.2977C11.8505 18.2596 11.5788 18.1819 11.2983 18.1597C11.0597 18.1052 10.1037 17.4942 9.97048 17.1952C9.89022 16.8855 9.75131 16.5944 9.73896 16.2634C9.71294 15.5779 9.93741 14.9927 10.3894 14.4873C10.5292 14.3081 10.7405 14.1981 10.8564 13.9962C10.9702 13.879 11.3742 13.7269 11.4033 13.7136C11.9439 13.4607 12.5045 13.2645 13.08 13.1084C13.1964 13.0769 13.2943 13.0023 13.3349 12.8808C13.4045 12.6704 13.4817 12.461 13.528 12.2454C13.588 11.9668 13.4314 11.7813 13.1479 11.7791C13.0394 11.7782 12.9274 11.795 12.822 11.8234C12.4674 11.9197 12.1142 12.0213 11.7631 12.1287C11.6075 12.1762 11.4994 12.1473 11.4103 12.0005C11.0148 11.3509 11.0937 10.5368 11.6291 9.99856C12.2266 9.39825 12.9701 9.20702 13.7904 9.26515C14.2318 9.2962 14.6596 9.40801 15.0878 9.51095C15.0988 9.51893 15.1108 9.52515 15.1196 9.52115C15.1205 9.52071 15.1213 9.52027 15.1222 9.51938C15.4344 9.59481 15.617 9.4932 15.7149 9.1804C15.7568 9.0473 15.7806 8.90798 15.8119 8.77132C15.8565 8.57521 15.8128 8.40572 15.6602 8.26951C14.7778 7.96204 13.8685 7.89948 12.9468 7.98954C12.6866 8.01484 12.4202 8.04545 12.1834 8.18033C11.6119 8.2775 11.1404 8.57299 10.7017 8.93416C10.6615 8.96743 10.1566 9.55665 10.1165 9.62409C9.55683 10.5541 9.59211 11.5062 10.0384 12.4588C10.1275 12.6487 10.2492 12.8142 10.15 12.9966C10.1217 13.0147 9.47612 13.5214 9.34823 13.8103C9.27767 13.9008 9.06335 14.1284 9.03777 14.1657C8.44287 15.0326 8.18665 15.9835 8.37319 17.0297C8.43272 17.3647 8.50902 17.7058 8.74054 17.9796C8.85388 18.1313 8.96148 18.2884 9.08231 18.4344C9.38748 18.8018 9.78923 19.04 10.1994 19.2663C10.2413 19.3102 10.2959 19.3306 10.3502 19.3528C10.9288 19.5902 11.5307 19.6998 12.1552 19.6918C12.3638 19.6891 12.362 19.6931 12.3087 19.8994C12.2046 20.3045 12.0807 20.7034 11.9656 21.1054C11.8835 21.3916 11.9559 21.5491 12.2288 21.6622L12.2196 21.6631C12.2363 21.6777 12.2562 21.6919 12.2778 21.6848C12.6839 21.5477 13.1007 21.4408 13.4923 21.2607C13.5399 21.2349 13.5875 21.2096 13.6352 21.1839C13.741 21.1666 13.7322 21.0725 13.7516 21.0011C13.8786 20.5335 13.9769 20.0596 14.0731 19.5849C14.1 19.4526 14.1573 19.3865 14.2852 19.3435C14.5599 19.2508 14.8395 19.1656 15.0852 19.0014C15.1606 18.9606 15.2364 18.9198 15.3118 18.8794C15.3498 18.8869 15.3851 18.8763 15.4168 18.8585C16.1299 18.4628 16.7451 17.9446 17.2897 17.3385C17.3047 17.3221 17.3074 17.2994 17.303 17.2768C17.3285 17.2453 17.3545 17.2138 17.3801 17.1823C17.5689 17.0554 17.6624 16.8509 17.7845 16.6707C17.9305 16.4555 17.9274 16.2554 17.7858 16.1064C17.6443 15.9573 17.4225 15.9475 17.2055 16.0806H17.217C16.9382 16.3184 16.6587 16.5558 16.4139 16.8309L16.32 16.9081C16.0642 17.0607 15.8419 17.2613 15.5892 17.4192C15.2369 17.6397 14.8713 17.8279 14.4568 17.9787C14.5 17.6602 14.5745 17.3771 14.638 17.0931C14.9807 15.5655 15.3577 14.0454 15.6871 12.5147C15.703 12.4406 15.6911 12.3448 15.7921 12.3124C16.103 12.5751 16.9771 13.3413 17.1085 13.4531C17.1945 13.5263 17.3426 13.5445 17.437 13.4567C17.6068 13.2978 19.2204 11.4898 19.4206 11.3287C19.5013 12.0617 19.549 12.7552 19.6063 13.4469C19.6773 14.3103 19.7426 15.1746 19.7977 16.0398C19.848 16.8198 19.9044 17.5994 19.9648 18.3789C20.008 18.9366 20.0446 19.4948 20.0773 20.053C20.0839 20.1639 20.1037 20.2766 20.2449 20.2996C20.4226 20.3786 20.5707 20.3218 20.7048 20.1985C20.9011 20.0179 21.1445 19.8919 21.309 19.674C21.6089 19.5214 21.7054 19.3493 21.6838 19.0289L21.6816 19.0303Z" fill="#E40044"/>
</svg>
