<svg width="29" height="29" viewBox="0 0 29 29" fill="none" xmlns="http://www.w3.org/2000/svg">
<path d="M2.07143 14.5C2.07143 12.8679 2.3929 11.2517 3.0175 9.74379C3.64209 8.23589 4.55757 6.86577 5.71167 5.71167C6.86577 4.55757 8.23589 3.64209 9.74379 3.0175C11.2517 2.3929 12.8679 2.07143 14.5 2.07143C16.1321 2.07143 17.7483 2.3929 19.2562 3.0175C20.7641 3.64209 22.1342 4.55757 23.2883 5.71167C24.4424 6.86577 25.3579 8.23589 25.9825 9.74379C26.6071 11.2517 26.9286 12.8679 26.9286 14.5C26.9286 17.7963 25.6191 20.9575 23.2883 23.2883C20.9575 25.6191 17.7963 26.9286 14.5 26.9286C11.2037 26.9286 8.04248 25.6191 5.71167 23.2883C3.38086 20.9575 2.07143 17.7963 2.07143 14.5ZM14.5 0C10.6544 0 6.96623 1.52767 4.24695 4.24695C1.52767 6.96623 0 10.6544 0 14.5C0 18.3456 1.52767 22.0338 4.24695 24.753C6.96623 27.4723 10.6544 29 14.5 29C18.3456 29 22.0338 27.4723 24.753 24.753C27.4723 22.0338 29 18.3456 29 14.5C29 10.6544 27.4723 6.96623 24.753 4.24695C22.0338 1.52767 18.3456 0 14.5 0ZM7.25 11.3929C7.25 11.1182 7.35912 10.8547 7.55335 10.6605C7.74759 10.4663 8.01103 10.3571 8.28571 10.3571H20.7143C20.989 10.3571 21.2524 10.4663 21.4466 10.6605C21.6409 10.8547 21.75 11.1182 21.75 11.3929C21.75 11.6675 21.6409 11.931 21.4466 12.1252C21.2524 12.3195 20.989 12.4286 20.7143 12.4286H8.28571C8.01103 12.4286 7.74759 12.3195 7.55335 12.1252C7.35912 11.931 7.25 11.6675 7.25 11.3929ZM7.25 17.6071C7.25 17.3325 7.35912 17.069 7.55335 16.8748C7.74759 16.6805 8.01103 16.5714 8.28571 16.5714H20.7143C20.989 16.5714 21.2524 16.6805 21.4466 16.8748C21.6409 17.069 21.75 17.3325 21.75 17.6071C21.75 17.8818 21.6409 18.1453 21.4466 18.3395C21.2524 18.5337 20.989 18.6429 20.7143 18.6429H8.28571C8.01103 18.6429 7.74759 18.5337 7.55335 18.3395C7.35912 18.1453 7.25 17.8818 7.25 17.6071Z" fill="#E40044"/>
</svg>
