<svg width="20" height="20" viewBox="0 0 20 20" fill="none" xmlns="http://www.w3.org/2000/svg">
<path d="M16.6663 8.33334C16.6663 13.3333 9.99967 18.3333 9.99967 18.3333C9.99967 18.3333 3.33301 13.3333 3.33301 8.33334C3.33301 6.56523 4.03539 4.86954 5.28563 3.61929C6.53587 2.36905 8.23156 1.66667 9.99967 1.66667C11.7678 1.66667 13.4635 2.36905 14.7137 3.61929C15.964 4.86954 16.6663 6.56523 16.6663 8.33334Z" stroke="#BA2025" stroke-width="2" stroke-linecap="round" stroke-linejoin="round"/>
<path d="M10 10.8333C11.3807 10.8333 12.5 9.71404 12.5 8.33333C12.5 6.95262 11.3807 5.83333 10 5.83333C8.61929 5.83333 7.5 6.95262 7.5 8.33333C7.5 9.71404 8.61929 10.8333 10 10.8333Z" stroke="#BA2025" stroke-width="2" stroke-linecap="round" stroke-linejoin="round"/>
</svg>
