<svg width="42" height="31" viewBox="0 0 42 31" fill="none" xmlns="http://www.w3.org/2000/svg">
<path d="M5.55762 24.9423C5.55762 26.0848 6.01146 27.1805 6.81931 27.9883C7.62716 28.7962 8.72284 29.25 9.86531 29.25C11.0078 29.25 12.1035 28.7962 12.9113 27.9883C13.7192 27.1805 14.173 26.0848 14.173 24.9423C14.173 23.7999 13.7192 22.7042 12.9113 21.8963C12.1035 21.0885 11.0078 20.6346 9.86531 20.6346C8.72284 20.6346 7.62716 21.0885 6.81931 21.8963C6.01146 22.7042 5.55762 23.7999 5.55762 24.9423ZM27.0961 24.9423C27.0961 26.0848 27.5499 27.1805 28.3578 27.9883C29.1656 28.7962 30.2613 29.25 31.4038 29.25C32.5462 29.25 33.6419 28.7962 34.4498 27.9883C35.2576 27.1805 35.7115 26.0848 35.7115 24.9423C35.7115 23.7999 35.2576 22.7042 34.4498 21.8963C33.6419 21.0885 32.5462 20.6346 31.4038 20.6346C30.2613 20.6346 29.1656 21.0885 28.3578 21.8963C27.5499 22.7042 27.0961 23.7999 27.0961 24.9423Z" stroke="#E40044" stroke-width="2.5" stroke-linecap="round" stroke-linejoin="round"/>
<path d="M5.55769 24.9423H1.25V12.0192M1.25 12.0192L5.55769 1.25H24.9423L33.5577 12.0192M1.25 12.0192H33.5577M33.5577 12.0192H35.7115C36.854 12.0192 37.9497 12.4731 38.7575 13.2809C39.5654 14.0888 40.0192 15.1845 40.0192 16.3269V24.9423H35.7115M27.0962 24.9423H14.1731M20.6346 12.0192V1.25" stroke="#E40044" stroke-width="2.5" stroke-linecap="round" stroke-linejoin="round"/>
</svg>
