<svg width="19" height="19" viewBox="0 0 19 19" fill="none" xmlns="http://www.w3.org/2000/svg">
<mask id="path-1-inside-1_196_84" fill="white">
<path d="M18.1812 19L10.9189 11.7386C10.3391 12.2326 9.67222 12.6149 8.91839 12.8854C8.16456 13.156 7.40687 13.2913 6.6453 13.2913C4.78817 13.2913 3.21634 12.6485 1.92981 11.3629C0.643269 10.0773 0 8.50603 0 6.64913C0 4.79223 0.642495 3.2202 1.92749 1.93305C3.21248 0.645898 4.78354 0.00154891 6.64066 2.78081e-06C8.49779 -0.00154335 10.0704 0.641647 11.3585 1.92957C12.6466 3.2175 13.2906 4.78953 13.2906 6.64565C13.2906 7.45119 13.148 8.23082 12.8627 8.98456C12.5774 9.7383 12.2024 10.383 11.7377 10.9188L19 18.179L18.1812 19ZM6.64646 12.1305C8.18505 12.1305 9.48396 11.601 10.5432 10.5419C11.6024 9.4828 12.132 8.18367 12.132 6.64449C12.132 5.10532 11.6024 3.80657 10.5432 2.74825C9.48396 1.68992 8.18505 1.16037 6.64646 1.1596C5.10788 1.15883 3.80858 1.68838 2.74858 2.74825C1.68858 3.80812 1.15897 5.10687 1.15974 6.64449C1.16051 8.18212 1.69013 9.48087 2.74858 10.5407C3.80704 11.6006 5.10594 12.1302 6.6453 12.1294"/>
</mask>
<path d="M18.1812 19L10.9189 11.7386C10.3391 12.2326 9.67222 12.6149 8.91839 12.8854C8.16456 13.156 7.40687 13.2913 6.6453 13.2913C4.78817 13.2913 3.21634 12.6485 1.92981 11.3629C0.643269 10.0773 0 8.50603 0 6.64913C0 4.79223 0.642495 3.2202 1.92749 1.93305C3.21248 0.645898 4.78354 0.00154891 6.64066 2.78081e-06C8.49779 -0.00154335 10.0704 0.641647 11.3585 1.92957C12.6466 3.2175 13.2906 4.78953 13.2906 6.64565C13.2906 7.45119 13.148 8.23082 12.8627 8.98456C12.5774 9.7383 12.2024 10.383 11.7377 10.9188L19 18.179L18.1812 19ZM6.64646 12.1305C8.18505 12.1305 9.48396 11.601 10.5432 10.5419C11.6024 9.4828 12.132 8.18367 12.132 6.64449C12.132 5.10532 11.6024 3.80657 10.5432 2.74825C9.48396 1.68992 8.18505 1.16037 6.64646 1.1596C5.10788 1.15883 3.80858 1.68838 2.74858 2.74825C1.68858 3.80812 1.15897 5.10687 1.15974 6.64449C1.16051 8.18212 1.69013 9.48087 2.74858 10.5407C3.80704 11.6006 5.10594 12.1302 6.6453 12.1294" fill="white"/>
<path d="M18.1812 19L17.4742 19.7071L18.1822 20.4151L18.8893 19.7061L18.1812 19ZM10.9189 11.7386L11.626 11.0315L10.9732 10.3787L10.2705 10.9774L10.9189 11.7386ZM6.6453 13.2913V12.2913V13.2913ZM11.7377 10.9188L10.9823 10.2635L10.3719 10.9673L11.0307 11.626L11.7377 10.9188ZM19 18.179L19.7081 18.8852L20.4134 18.1779L19.707 17.4718L19 18.179ZM18.1812 19L18.8883 18.2929L11.626 11.0315L10.9189 11.7386L10.2119 12.4458L17.4742 19.7071L18.1812 19ZM10.9189 11.7386L10.2705 10.9774C9.78709 11.3892 9.22674 11.7123 8.58056 11.9442L8.91839 12.8854L9.25622 13.8267C10.1177 13.5174 10.8911 13.076 11.5674 12.4998L10.9189 11.7386ZM8.91839 12.8854L8.58056 11.9442C7.92946 12.1779 7.28585 12.2913 6.6453 12.2913V13.2913V14.2913C7.52788 14.2913 8.39966 14.1341 9.25622 13.8267L8.91839 12.8854ZM6.6453 13.2913V12.2913C5.047 12.2913 3.73129 11.7494 2.63666 10.6555L1.92981 11.3629L1.22295 12.0703C2.70139 13.5476 4.52935 14.2913 6.6453 14.2913V13.2913ZM1.92981 11.3629L2.63666 10.6555C1.54218 9.56184 1 8.24693 1 6.64913H0H-1C-1 8.76514 -0.255641 10.5927 1.22295 12.0703L1.92981 11.3629ZM0 6.64913H1C1 5.05093 1.54172 3.73487 2.63519 2.63956L1.92749 1.93305L1.21978 1.22654C-0.256731 2.70554 -1 4.53353 -1 6.64913H0ZM1.92749 1.93305L2.63519 2.63956C3.72841 1.5445 5.04332 1.00133 6.6415 1L6.64066 2.78081e-06L6.63983 -0.999997C4.52375 -0.998235 2.69654 -0.252701 1.21978 1.22654L1.92749 1.93305ZM6.64066 2.78081e-06L6.6415 1C8.23897 0.998672 9.55515 1.54059 10.6514 2.63672L11.3585 1.92957L12.0655 1.22242C10.5856 -0.257295 8.75662 -1.00176 6.63983 -0.999997L6.64066 2.78081e-06ZM11.3585 1.92957L10.6514 2.63672C11.748 3.73315 12.2906 5.04911 12.2906 6.64565H13.2906H14.2906C14.2906 4.52994 13.5452 2.70185 12.0655 1.22242L11.3585 1.92957ZM13.2906 6.64565H12.2906C12.2906 7.33018 12.1699 7.98988 11.9274 8.63056L12.8627 8.98456L13.7979 9.33856C14.126 8.47176 14.2906 7.57219 14.2906 6.64565H13.2906ZM12.8627 8.98456L11.9274 8.63056C11.6782 9.28895 11.36 9.82811 10.9823 10.2635L11.7377 10.9188L12.4931 11.574C13.0448 10.938 13.4765 10.1876 13.7979 9.33856L12.8627 8.98456ZM11.7377 10.9188L11.0307 11.626L18.293 18.8862L19 18.179L19.707 17.4718L12.4447 10.2116L11.7377 10.9188ZM19 18.179L18.2919 17.4729L17.4732 18.2939L18.1812 19L18.8893 19.7061L19.7081 18.8852L19 18.179ZM6.64646 12.1305V13.1305C8.44218 13.1305 9.99786 12.5013 11.2502 11.249L10.5432 10.5419L9.83612 9.83475C8.97005 10.7007 7.92792 11.1305 6.64646 11.1305V12.1305ZM10.5432 10.5419L11.2502 11.249C12.5027 9.9967 13.132 8.44072 13.132 6.64449H12.132H11.132C11.132 7.92661 10.7021 8.9689 9.83612 9.83475L10.5432 10.5419ZM12.132 6.64449H13.132C13.132 4.84826 12.5027 3.29251 11.25 2.04084L10.5432 2.74825L9.83638 3.45566C10.7021 4.32064 11.132 5.36239 11.132 6.64449H12.132ZM10.5432 2.74825L11.25 2.04084C9.99767 0.789592 8.44228 0.160502 6.64696 0.1596L6.64646 1.1596L6.64596 2.1596C7.92782 2.16024 8.97024 2.59025 9.83638 3.45566L10.5432 2.74825ZM6.64646 1.1596L6.64696 0.1596C4.85086 0.158697 3.29465 0.788113 2.04152 2.0411L2.74858 2.74825L3.45564 3.4554C4.32251 2.58864 5.36489 2.15896 6.64596 2.1596L6.64646 1.1596ZM2.74858 2.74825L2.04152 2.0411C0.788479 3.29398 0.158836 4.84962 0.159739 6.645L1.15974 6.64449L2.15974 6.64399C2.1591 5.36411 2.58868 4.32226 3.45564 3.4554L2.74858 2.74825ZM1.15974 6.64449L0.159739 6.645C0.160641 8.43957 0.789938 9.99464 2.041 11.2474L2.74858 10.5407L3.45616 9.83411C2.59031 8.9671 2.16038 7.92467 2.15974 6.64399L1.15974 6.64449ZM2.74858 10.5407L2.041 11.2474C3.29289 12.5009 4.84906 13.1303 6.64581 13.1294L6.6453 12.1294L6.6448 11.1294C5.36283 11.13 4.32118 10.7003 3.45616 9.83411L2.74858 10.5407Z" fill="black" mask="url(#path-1-inside-1_196_84)"/>
</svg>
